<svg xmlns="http://www.w3.org/2000/svg" xmlns:xlink="http://www.w3.org/1999/xlink" x="0px" y="0px" viewBox="0 0 750 500" style="enable-background:new 0 0 750 500;" xml:space="preserve">
<style type="text/css">
	.st0{fill:#F1F1F1;}
	.st1{fill:#FFFFFF;}
	.st2{fill:#CFCFCF;}
	.st3{fill:#C2C2C2;}
	.st4{fill:none;stroke:#011635;stroke-width:1.5;stroke-linecap:round;stroke-linejoin:round;stroke-miterlimit:10;}
	.st5{fill:#011635;stroke:#011635;stroke-width:1.5;stroke-linecap:round;stroke-linejoin:round;stroke-miterlimit:10;}
	.st6{fill:#FFFFFF;stroke:#011635;stroke-width:1.5;stroke-linecap:round;stroke-linejoin:round;stroke-miterlimit:10;}
	.st7{fill:#F4DC90;stroke:#011635;stroke-width:1.5;stroke-linecap:round;stroke-linejoin:round;stroke-miterlimit:10;}
	.st8{fill:#D0D0D6;stroke:#011635;stroke-width:1.5;stroke-linecap:round;stroke-linejoin:round;stroke-miterlimit:10;}
	.st9{fill:#F5DB34;}
	.st10{fill:#C1C1C1;}
	.st11{opacity:0.45;}
	.st12{fill:#9B9B9B;}
	.st13{fill:none;stroke:#9B9B9B;stroke-width:1.5;stroke-linecap:round;stroke-linejoin:round;stroke-miterlimit:10;}
	.st14{fill:#011635;}
</style>
<g id="BACKGROUND">
</g>
<g id="OBJECTS">
	<g>
		<path class="st0" d="M165.1,441.6c123.1,59.6,328.6,15.8,405-44.8c99.3-78.7,123.3-263.4,20.3-325.8    c-58.6-35.5-153.4-27.2-229.5,76c-70.7,95.8-122,49.4-201.7,77.5C58.3,260.1,59.9,390.7,165.1,441.6z"></path>
		<path class="st1" d="M219.2,139.6h347.6c6.6,0,12,5.4,12,12v230.7c0,6.6-5.4,12-12,12H219.2c-6.6,0-12-5.4-12-12V151.6    C207.2,145,212.6,139.6,219.2,139.6z"></path>
	</g>
	<g>
		<g>
			<path class="st2" d="M516,147.3c-1.3-12.5,4.7-29.8,13.5-28.3c8.8,1.6-2.2,15.2,5.1,29.2L516,147.3z"></path>
			<g>
				<path class="st3" d="M518.4,154.9c0,0,14.2-14.1,21.6-39.1c7.4-25.1,40.1-25.8,46.2,5.8c6.1,31.6-22.4,76.1-22.4,76.1      L518.4,154.9z"></path>
				<path class="st4" d="M565.6,123.2c0,0,1.8,30.1-25,52.7"></path>
			</g>
			<path class="st4" d="M606.6,130.8c0,0,4.7,16.4-7.5,28.8"></path>
		</g>
		<g>
			<path class="st4" d="M215.8,394.5c0,0,3.1,14.8-4.8,27.9"></path>
			<path class="st4" d="M200.6,394.5c0,0-0.4,11.9-6.5,22"></path>
		</g>
		<g>
			<g>
				<path class="st3" d="M348.4,404.3c19.2,24.6,38.7,23.8,62.2,23.7c23.5-0.1,50.1,6.5,61.9,21.6c11.8,15.1,47.5,19.3,45.8-17      c-1.6-36.3-54.2-68.8-96.5-67.4c-42.4,1.4-70.8-5-70.8-5L348.4,404.3z"></path>
				<path class="st4" d="M349.8,380.7c65.9,34,111.9,11.7,140.1,47.4"></path>
			</g>
			<path class="st4" d="M534.6,432.2c0,0,10.6,7.3,10.2,25.9"></path>
		</g>
		<g>
			<path class="st2" d="M218.9,150.3c-8.3-17.1-6.2-44,5.5-43.7c11.8,0.3,0.2,28.9,15.7,41.2L218.9,150.3z"></path>
			<g>
				<path class="st3" d="M177.3,184.1c0,0-46.3-84.1-2-97.2c37.2-11,29.4,62.2,69.7,78.4L177.3,184.1z"></path>
				<path class="st4" d="M179.3,109.1c0,0,5.3,37.5,29.6,66.3"></path>
			</g>
			<path class="st4" d="M152.4,279.1c0,0,22.4,6.3,41.7,2.6"></path>
			<path class="st4" d="M142.9,160.3c0,0,13.1,5.4,19.4,18.8"></path>
			<path class="st4" d="M262.7,121.4c0,0-6,10.5,0,28.6"></path>
		</g>
	</g>
	<g>
		<g>
			<path class="st5" d="M201.4,143.9H549c6.6,0,12,5.4,12,12v230.7c0,6.6-5.4,12-12,12H201.4c-6.6,0-12-5.4-12-12V155.9     C189.4,149.3,194.8,143.9,201.4,143.9z"></path>
			<path class="st6" d="M193.6,143.9h347.6c6.6,0,12,5.4,12,12v230.7c0,6.6-5.4,12-12,12H193.6c-6.6,0-12-5.4-12-12V155.9     C181.6,149.3,187,143.9,193.6,143.9z"></path>
			<path class="st7" d="M193.6,398.7h347.6c6.6,0,12-5.4,12-12v-12.2H181.6v12.2C181.6,393.3,187,398.7,193.6,398.7z"></path>
			<path class="st8" d="M373.3,386.6c0-3.3-2.6-5.9-5.9-5.9s-5.9,2.6-5.9,5.9c0,3.3,2.6,5.9,5.9,5.9S373.3,389.8,373.3,386.6z"></path>
			<path class="st7" d="M541.2,143.9H193.6c-6.6,0-12,5.4-12,12h371.6C553.2,149.3,547.9,143.9,541.2,143.9z"></path>
		</g>
		<g>
			<g>
				<rect x="206.4" y="175.9" class="st9" width="134.4" height="91.3"></rect>
				<rect x="206.4" y="263.9" class="st10" width="134.4" height="3.3"></rect>
			</g>
			<g>
				<rect x="212.7" y="182.3" class="st4" width="6.2" height="6.2"></rect>
				<line class="st4" x1="231.2" y1="188.4" x2="225" y2="188.4"></line>
			</g>
			<g>
				<g>
					<polyline class="st4" points="229.2,241.3 247.3,206.3 264.9,232.9 285.8,211.9 299.2,227.6 320.4,237.8      "></polyline>
					<path class="st6" d="M231.4,241.3c0-1.2-1-2.2-2.2-2.2c-1.2,0-2.2,1-2.2,2.2c0,1.2,1,2.2,2.2,2.2       C230.4,243.6,231.4,242.6,231.4,241.3z"></path>
					<path class="st6" d="M288,211.9c0-1.2-1-2.2-2.2-2.2c-1.2,0-2.2,1-2.2,2.2c0,1.2,1,2.2,2.2,2.2C287,214.1,288,213.2,288,211.9z       "></path>
					<circle class="st6" cx="264.9" cy="232.9" r="2.2"></circle>
					<path class="st6" d="M301.4,227.6c0-1.2-1-2.2-2.2-2.2c-1.2,0-2.2,1-2.2,2.2c0,1.2,1,2.2,2.2,2.2       C300.4,229.8,301.4,228.8,301.4,227.6z"></path>
					<path class="st6" d="M249.5,206.3c0-1.2-1-2.2-2.2-2.2c-1.2,0-2.2,1-2.2,2.2s1,2.2,2.2,2.2       C248.5,208.5,249.5,207.5,249.5,206.3z"></path>
					<path class="st6" d="M322.6,237.8c0-1.2-1-2.2-2.2-2.2c-1.2,0-2.2,1-2.2,2.2c0,1.2,1,2.2,2.2,2.2       C321.6,240,322.6,239,322.6,237.8z"></path>
				</g>
				<line class="st4" x1="229.2" y1="252.5" x2="320.4" y2="252.5"></line>
			</g>
			<g>
				<rect x="299" y="182.3" class="st1" width="35" height="6.2"></rect>
				<rect x="316.1" y="191.4" class="st2" width="17.9" height="6.2"></rect>
			</g>
		</g>
		<g>
			<g>
				<rect x="206.4" y="275.4" class="st9" width="134.4" height="79"></rect>
				<rect x="206.4" y="351.2" class="st10" width="134.4" height="3.3"></rect>
			</g>
			<g>
				<rect x="212.7" y="281.7" class="st4" width="6.2" height="6.2"></rect>
				<line class="st4" x1="231.2" y1="287.9" x2="225" y2="287.9"></line>
			</g>
			<g>
				<rect x="218.9" y="296.2" class="st10" width="115.1" height="4.4"></rect>
				<rect x="218.9" y="306.6" class="st1" width="115.1" height="4.4"></rect>
				<rect x="218.9" y="317.1" class="st1" width="71.3" height="4.4"></rect>
				<rect x="218.9" y="327.6" class="st10" width="51.6" height="4.4"></rect>
				<rect x="276" y="327.6" class="st10" width="29" height="4.4"></rect>
				<rect x="218.9" y="338" class="st1" width="31.4" height="4.4"></rect>
			</g>
		</g>
		<g>
			<g>
				<rect x="354.9" y="175.9" class="st9" width="173.5" height="22.6"></rect>
				<rect x="354.9" y="198.5" class="st10" width="173.5" height="3.3"></rect>
			</g>
			<g>
				<line class="st4" x1="361.3" y1="182.3" x2="367.4" y2="182.3"></line>
				<line class="st4" x1="373.6" y1="182.3" x2="379.8" y2="182.3"></line>
				<rect x="361.3" y="179.9" class="st4" width="6.2" height="2.4"></rect>
			</g>
			<g>
				<rect x="367.4" y="187.7" class="st2" width="61.6" height="4.4"></rect>
				<rect x="432.8" y="187.7" class="st1" width="25.9" height="4.4"></rect>
			</g>
		</g>
		<g>
			<g>
				<rect x="354.9" y="206.4" class="st9" width="173.5" height="22.6"></rect>
				<rect x="354.9" y="229" class="st10" width="173.5" height="3.3"></rect>
			</g>
			<g>
				<line class="st4" x1="361.3" y1="212.7" x2="367.4" y2="212.7"></line>
				<line class="st4" x1="373.6" y1="212.7" x2="379.8" y2="212.7"></line>
				<rect x="361.3" y="210.3" class="st4" width="6.2" height="2.4"></rect>
			</g>
			<g>
				<rect x="367.4" y="218.1" class="st10" width="28.2" height="4.4"></rect>
				<rect x="430.1" y="218.1" class="st10" width="82.3" height="4.4"></rect>
				<rect x="400.3" y="218.1" class="st1" width="25.9" height="4.4"></rect>
			</g>
		</g>
		<g>
			<g>
				<rect x="354.9" y="236.8" class="st9" width="173.5" height="22.6"></rect>
				<rect x="354.9" y="259.4" class="st10" width="173.5" height="3.3"></rect>
			</g>
			<g>
				<line class="st4" x1="361.3" y1="243.2" x2="367.4" y2="243.2"></line>
				<line class="st4" x1="373.6" y1="243.2" x2="379.8" y2="243.2"></line>
				<rect x="361.3" y="240.8" class="st4" width="6.2" height="2.4"></rect>
			</g>
			<rect x="367.4" y="248.6" class="st10" width="61.6" height="4.4"></rect>
		</g>
		<g>
			<g>
				<rect x="354.9" y="267.3" class="st9" width="173.5" height="22.6"></rect>
				<rect x="354.9" y="289.9" class="st10" width="173.5" height="3.3"></rect>
			</g>
			<g>
				<line class="st4" x1="361.3" y1="273.6" x2="367.4" y2="273.6"></line>
				<line class="st4" x1="373.6" y1="273.6" x2="379.8" y2="273.6"></line>
				<rect x="361.3" y="271.2" class="st4" width="6.2" height="2.4"></rect>
			</g>
			<g>
				<rect x="367.4" y="279" class="st10" width="43.2" height="4.4"></rect>
				<rect x="415.6" y="279" class="st1" width="72.7" height="4.4"></rect>
				<rect x="493.8" y="279" class="st1" width="12" height="4.4"></rect>
			</g>
		</g>
		<g>
			<g>
				<rect x="354.9" y="302.8" class="st9" width="173.5" height="51.6"></rect>
				<rect x="354.9" y="351.2" class="st10" width="173.5" height="3.3"></rect>
			</g>
			<g>
				<rect x="361.3" y="309.2" class="st4" width="6.2" height="6.2"></rect>
				<line class="st4" x1="379.8" y1="315.3" x2="373.6" y2="315.3"></line>
			</g>
			<g>
				<rect x="387.8" y="316.2" class="st2" width="24.9" height="24.9"></rect>
				<g>
					<line class="st4" x1="394.1" y1="334.8" x2="406.5" y2="322.5"></line>
					<line class="st4" x1="406.5" y1="334.8" x2="394.1" y2="322.5"></line>
				</g>
			</g>
			<g>
				<rect x="421.9" y="316.2" class="st2" width="24.9" height="24.9"></rect>
				<g>
					<line class="st4" x1="428.2" y1="334.8" x2="440.5" y2="322.5"></line>
				</g>
			</g>
			<g>
				<rect x="455.9" y="316.2" class="st2" width="24.9" height="24.9"></rect>
				<rect x="463.3" y="323" class="st4" width="11.2" height="11.2"></rect>
			</g>
			<g>
				<rect x="489.9" y="316.2" class="st2" width="24.9" height="24.9"></rect>
				<line class="st4" x1="496.8" y1="323" x2="496.8" y2="323"></line>
				<line class="st4" x1="507.9" y1="323" x2="507.9" y2="323"></line>
				<line class="st4" x1="496.8" y1="334.2" x2="496.8" y2="334.2"></line>
				<line class="st4" x1="507.9" y1="334.2" x2="507.9" y2="334.2"></line>
			</g>
		</g>
	</g>
	<g>
		<g>
			<g>
				<g class="st11">
					<path class="st12" d="M631.1,445H486.7c-4,0-7.2-3.2-7.2-7.2V293.3c0-4,3.2-7.2,7.2-7.2h144.4c4,0,7.2,3.2,7.2,7.2v144.4       C638.3,441.7,635.1,445,631.1,445z"></path>
					<path class="st13" d="M631.1,445H486.7c-4,0-7.2-3.2-7.2-7.2V293.3c0-4,3.2-7.2,7.2-7.2h144.4c4,0,7.2,3.2,7.2,7.2v144.4       C638.3,441.7,635.1,445,631.1,445z"></path>
				</g>
				<g>
					<path class="st1" d="M624.1,438H479.7c-4,0-7.2-3.2-7.2-7.2V286.3c0-4,3.2-7.2,7.2-7.2h144.4c4,0,7.2,3.2,7.2,7.2v144.4       C631.3,434.7,628.1,438,624.1,438z"></path>
					<path class="st4" d="M624.1,438H479.7c-4,0-7.2-3.2-7.2-7.2V286.3c0-4,3.2-7.2,7.2-7.2h144.4c4,0,7.2,3.2,7.2,7.2v144.4       C631.3,434.7,628.1,438,624.1,438z"></path>
				</g>
			</g>
			<g>
				<line class="st4" x1="481.9" y1="293.5" x2="487.6" y2="287.8"></line>
				<line class="st4" x1="481.9" y1="287.8" x2="487.6" y2="293.5"></line>
			</g>
			<g>
				<g>
					<g>
						<path class="st2" d="M503.5,332.4c-6.7,0-12.1,5.4-12.1,12.1v2.9h24.1v-2.9C515.6,337.8,510.1,332.4,503.5,332.4z"></path>
						<path class="st2" d="M510.3,323.1c0-3.8-3.1-6.9-6.9-6.9c-3.8,0-6.9,3.1-6.9,6.9s3.1,6.9,6.9,6.9        C507.3,330,510.3,326.9,510.3,323.1z"></path>
					</g>
					<rect x="487.6" y="305" class="st4" width="31.8" height="42.4"></rect>
				</g>
				<g>
					
						<rect x="527.3" y="332.1" transform="matrix(-1 -1.224647e-16 1.224647e-16 -1 1089.6276 670.4419)" class="st2" width="35" height="6.2"></rect>
					
						<rect x="527.3" y="341.2" transform="matrix(-1 -1.224647e-16 1.224647e-16 -1 1072.468 688.6397)" class="st2" width="17.9" height="6.2"></rect>
				</g>
				<path class="st4" d="M616.3,343.6c0-2.1-1.7-3.8-3.8-3.8c-2.1,0-3.8,1.7-3.8,3.8c0,2.1,1.7,3.8,3.8,3.8      C614.6,347.4,616.3,345.7,616.3,343.6z"></path>
			</g>
			<g>
				<rect x="487.6" y="357.3" class="st9" width="128.8" height="25.3"></rect>
				<g>
					<rect x="494.4" y="363" class="st2" width="115.1" height="4.4"></rect>
					<rect x="494.4" y="373.5" class="st1" width="43.5" height="4.4"></rect>
				</g>
			</g>
			<g>
				<rect x="487.6" y="392.5" class="st9" width="128.8" height="25.3"></rect>
				<g>
					<rect x="494.4" y="398.2" class="st2" width="52.7" height="4.4"></rect>
					<rect x="551" y="398.2" class="st1" width="58.6" height="4.4"></rect>
					<rect x="518.4" y="408.7" class="st1" width="42.1" height="4.4"></rect>
					<rect x="494.4" y="408.7" class="st1" width="20.1" height="4.4"></rect>
				</g>
			</g>
		</g>
		<g>
			<path class="st4" d="M478.3,363.1c-15.3,0-14.5-12.8-31.4-12.8l0,0c-4.6,0-8.3-3.7-8.3-8.3v-3.3"></path>
			<path class="st5" d="M484,363.1L484,363.1c0-1.6-1.3-2.8-2.8-2.8l0,0c-1.6,0-2.8,1.3-2.8,2.8l0,0c0,1.6,1.3,2.8,2.8,2.8l0,0     C482.7,365.9,484,364.6,484,363.1z"></path>
			<path class="st5" d="M441.5,335.8L441.5,335.8c0-1.6-1.3-2.8-2.8-2.8l0,0c-1.6,0-2.8,1.3-2.8,2.8l0,0c0,1.6,1.3,2.8,2.8,2.8l0,0     C440.2,338.7,441.5,337.4,441.5,335.8z"></path>
		</g>
	</g>
	<g>
		<g class="st11">
			<path class="st12" d="M652.3,268.8h-96.5c-4,0-7.2-3.2-7.2-7.2v-96.5c0-4,3.2-7.2,7.2-7.2h96.5c4,0,7.2,3.2,7.2,7.2v96.5     C659.5,265.6,656.3,268.8,652.3,268.8z"></path>
			<path class="st13" d="M652.3,268.8h-96.5c-4,0-7.2-3.2-7.2-7.2v-96.5c0-4,3.2-7.2,7.2-7.2h96.5c4,0,7.2,3.2,7.2,7.2v96.5     C659.5,265.6,656.3,268.8,652.3,268.8z"></path>
		</g>
		<g>
			<path class="st1" d="M645.3,261.8h-96.5c-4,0-7.2-3.2-7.2-7.2v-96.5c0-4,3.2-7.2,7.2-7.2h96.5c4,0,7.2,3.2,7.2,7.2v96.5     C652.5,258.6,649.3,261.8,645.3,261.8z"></path>
			<path class="st4" d="M645.3,261.8h-96.5c-4,0-7.2-3.2-7.2-7.2v-96.5c0-4,3.2-7.2,7.2-7.2h96.5c4,0,7.2,3.2,7.2,7.2v96.5     C652.5,258.6,649.3,261.8,645.3,261.8z"></path>
		</g>
	</g>
	<line class="st4" x1="550.9" y1="165.3" x2="556.6" y2="159.6"></line>
	<line class="st4" x1="550.9" y1="159.6" x2="556.6" y2="165.3"></line>
	<g>
		<path class="st4" d="M517.7,182c16.9,0,16.1,12.8,31.4,12.8"></path>
		<path class="st5" d="M554.8,194.9L554.8,194.9c0-1.6-1.3-2.8-2.8-2.8l0,0c-1.6,0-2.8,1.3-2.8,2.8l0,0c0,1.6,1.3,2.8,2.8,2.8l0,0    C553.5,197.7,554.8,196.4,554.8,194.9z"></path>
		<path class="st5" d="M517.7,182L517.7,182c0-1.6-1.3-2.8-2.8-2.8l0,0c-1.6,0-2.8,1.3-2.8,2.8l0,0c0,1.6,1.3,2.8,2.8,2.8l0,0    C516.4,184.9,517.7,183.6,517.7,182z"></path>
	</g>
	<g>
		<path class="st5" d="M554.8,212.5L554.8,212.5c0-1.6-1.3-2.8-2.8-2.8l0,0c-1.6,0-2.8,1.3-2.8,2.8l0,0c0,1.6,1.3,2.8,2.8,2.8l0,0    C553.5,215.3,554.8,214.1,554.8,212.5z"></path>
		<path class="st5" d="M517.7,212.5L517.7,212.5c0-1.6-1.3-2.8-2.8-2.8l0,0c-1.6,0-2.8,1.3-2.8,2.8l0,0c0,1.6,1.3,2.8,2.8,2.8l0,0    C516.4,215.3,517.7,214.1,517.7,212.5z"></path>
		<line class="st4" x1="517.7" y1="212.5" x2="549.1" y2="212.5"></line>
	</g>
	<g>
		<path class="st4" d="M517.7,242.9c16.9,0,16.1-12.8,31.4-12.8"></path>
		<path class="st5" d="M554.8,230.1L554.8,230.1c0,1.6-1.3,2.8-2.8,2.8l0,0c-1.6,0-2.8-1.3-2.8-2.8l0,0c0-1.6,1.3-2.8,2.8-2.8l0,0    C553.5,227.3,554.8,228.5,554.8,230.1z"></path>
		<path class="st5" d="M517.7,242.9L517.7,242.9c0,1.6-1.3,2.8-2.8,2.8l0,0c-1.6,0-2.8-1.3-2.8-2.8l0,0c0-1.6,1.3-2.8,2.8-2.8l0,0    C516.4,240.1,517.7,241.4,517.7,242.9z"></path>
	</g>
	<g>
		<g class="st11">
			<path class="st12" d="M355.3,458.3H243.7c-4,0-7.2-3.2-7.2-7.2v-53.9c0-4,3.2-7.2,7.2-7.2h111.6c4,0,7.2,3.2,7.2,7.2v53.9     C362.5,455.1,359.2,458.3,355.3,458.3z"></path>
			<path class="st13" d="M355.3,458.3H243.7c-4,0-7.2-3.2-7.2-7.2v-53.9c0-4,3.2-7.2,7.2-7.2h111.6c4,0,7.2,3.2,7.2,7.2v53.9     C362.5,455.1,359.2,458.3,355.3,458.3z"></path>
		</g>
		<g>
			<path class="st1" d="M348.3,451.3H236.7c-4,0-7.2-3.2-7.2-7.2v-53.9c0-4,3.2-7.2,7.2-7.2h111.6c4,0,7.2,3.2,7.2,7.2v53.9     C355.5,448.1,352.2,451.3,348.3,451.3z"></path>
			<path class="st4" d="M348.3,451.3H236.7c-4,0-7.2-3.2-7.2-7.2v-53.9c0-4,3.2-7.2,7.2-7.2h111.6c4,0,7.2,3.2,7.2,7.2v53.9     C355.5,448.1,352.2,451.3,348.3,451.3z"></path>
		</g>
	</g>
	<g>
		<line class="st4" x1="238.8" y1="397.4" x2="244.5" y2="391.7"></line>
		<line class="st4" x1="238.8" y1="391.7" x2="244.5" y2="397.4"></line>
	</g>
	<g>
		<path class="st4" d="M292.8,386.8c0-15.3-12.8-14.5-12.8-31.4l0,0c0-4.6-3.7-8.3-8.3-8.3h-3.3"></path>
		<path class="st5" d="M292.8,392.5L292.8,392.5c-1.6,0-2.8-1.3-2.8-2.8v0c0-1.6,1.3-2.8,2.8-2.8h0c1.6,0,2.8,1.3,2.8,2.8v0    C295.6,391.2,294.4,392.5,292.8,392.5z"></path>
		<path class="st5" d="M265.6,350L265.6,350c-1.6,0-2.8-1.3-2.8-2.8l0,0c0-1.6,1.3-2.8,2.8-2.8l0,0c1.6,0,2.8,1.3,2.8,2.8l0,0    C268.4,348.7,267.1,350,265.6,350z"></path>
	</g>
	<g>
		<g>
			<g class="st11">
				<path class="st12" d="M449.3,470h-59c-4,0-7.2-3.2-7.2-7.2v-32c0-4,3.2-7.2,7.2-7.2h59c4,0,7.2,3.2,7.2,7.2v32      C456.5,466.8,453.3,470,449.3,470z"></path>
				<path class="st13" d="M449.3,470h-59c-4,0-7.2-3.2-7.2-7.2v-32c0-4,3.2-7.2,7.2-7.2h59c4,0,7.2,3.2,7.2,7.2v32      C456.5,466.8,453.3,470,449.3,470z"></path>
			</g>
			<g>
				<path class="st1" d="M442.3,463h-59c-4,0-7.2-3.2-7.2-7.2v-32c0-4,3.2-7.2,7.2-7.2h59c4,0,7.2,3.2,7.2,7.2v32      C449.5,459.8,446.3,463,442.3,463z"></path>
				<path class="st4" d="M442.3,463h-59c-4,0-7.2-3.2-7.2-7.2v-32c0-4,3.2-7.2,7.2-7.2h59c4,0,7.2,3.2,7.2,7.2v32      C449.5,459.8,446.3,463,442.3,463z"></path>
			</g>
		</g>
		<g>
			<line class="st4" x1="385.4" y1="430.9" x2="391.1" y2="425.2"></line>
			<line class="st4" x1="385.4" y1="425.2" x2="391.1" y2="430.9"></line>
		</g>
		<g>
			<path class="st5" d="M402.9,449.6c0-1.5-1.2-2.7-2.7-2.7s-2.7,1.2-2.7,2.7c0,1.5,1.2,2.7,2.7,2.7S402.9,451.1,402.9,449.6z"></path>
			<path class="st5" d="M430.8,430c0-1.5-1.2-2.7-2.7-2.7c-1.5,0-2.7,1.2-2.7,2.7s1.2,2.7,2.7,2.7     C429.6,432.6,430.8,431.4,430.8,430z"></path>
			<path class="st4" d="M400.3,449.6c0,0,23.2,6.1,27.8-19.7"></path>
		</g>
	</g>
	<g>
		<path class="st4" d="M348.4,429.8c16.9,0,16.1,12.8,31.4,12.8"></path>
		<path class="st5" d="M385.5,442.6L385.5,442.6c0-1.6-1.3-2.8-2.8-2.8l0,0c-1.6,0-2.8,1.3-2.8,2.8l0,0c0,1.6,1.3,2.8,2.8,2.8l0,0    C384.3,445.5,385.5,444.2,385.5,442.6z"></path>
		<path class="st5" d="M348.4,429.8L348.4,429.8c0-1.6-1.3-2.8-2.8-2.8l0,0c-1.6,0-2.8,1.3-2.8,2.8l0,0c0,1.6,1.3,2.8,2.8,2.8l0,0    C347.1,432.6,348.4,431.3,348.4,429.8z"></path>
	</g>
	<g>
		<g>
			<g>
				<g class="st11">
					<path class="st12" d="M194.2,410.9H140c-4.2,0-7.7-3.4-7.7-7.7v-96.4c0-4.2,3.4-7.7,7.7-7.7h54.3c4.2,0,7.7,3.4,7.7,7.7v96.4       C201.9,407.5,198.5,410.9,194.2,410.9z"></path>
					<path class="st13" d="M194.2,410.9H140c-4.2,0-7.7-3.4-7.7-7.7v-96.4c0-4.2,3.4-7.7,7.7-7.7h54.3c4.2,0,7.7,3.4,7.7,7.7v96.4       C201.9,407.5,198.5,410.9,194.2,410.9z"></path>
				</g>
				<g>
					<path class="st1" d="M187.2,403.9H133c-4.2,0-7.7-3.4-7.7-7.7v-96.4c0-4.2,3.4-7.7,7.7-7.7h54.3c4.2,0,7.7,3.4,7.7,7.7v96.4       C194.9,400.5,191.5,403.9,187.2,403.9z"></path>
					<path class="st4" d="M187.2,403.9H133c-4.2,0-7.7-3.4-7.7-7.7v-96.4c0-4.2,3.4-7.7,7.7-7.7h54.3c4.2,0,7.7,3.4,7.7,7.7v96.4       C194.9,400.5,191.5,403.9,187.2,403.9z"></path>
				</g>
			</g>
			<g>
				<line class="st4" x1="134.6" y1="306.5" x2="140.3" y2="300.8"></line>
				<line class="st4" x1="134.6" y1="300.8" x2="140.3" y2="306.5"></line>
			</g>
			<g>
				<path class="st2" d="M183.4,334c0-0.2-0.1-0.4-0.2-0.5c-0.1-0.1-0.3-0.2-0.5-0.2c-14.4,0.9-21.8-12-21.9-12.2      c-0.3-0.5-1-0.5-1.3,0c-0.1,0.1-7.5,13-21.9,12.2c-0.2,0-0.4,0.1-0.5,0.2c-0.1,0.1-0.2,0.3-0.2,0.5c0,0.3-1.3,34.4,23.2,38.2      c0,0,0.1,0,0.1,0c0,0,0.1,0,0.1,0C184.7,368.4,183.4,334.4,183.4,334z"></path>
			</g>
		</g>
		<g>
			<path class="st4" d="M218.7,307.9c-16.9,0-16.1,12.8-31.4,12.8"></path>
			<path class="st5" d="M181.6,320.7L181.6,320.7c0-1.6,1.3-2.8,2.8-2.8l0,0c1.6,0,2.8,1.3,2.8,2.8l0,0c0,1.6-1.3,2.8-2.8,2.8l0,0     C182.9,323.6,181.6,322.3,181.6,320.7z"></path>
			<path class="st5" d="M218.7,307.9L218.7,307.9c0-1.6,1.3-2.8,2.8-2.8l0,0c1.6,0,2.8,1.3,2.8,2.8l0,0c0,1.6-1.3,2.8-2.8,2.8l0,0     C220,310.7,218.7,309.4,218.7,307.9z"></path>
		</g>
	</g>
	<g>
		<g>
			<g>
				<g class="st11">
					<path class="st12" d="M194.7,272.4h-55.2c-4,0-7.2-3.2-7.2-7.2v-80.6c0-4,3.2-7.2,7.2-7.2h55.2c4,0,7.2,3.2,7.2,7.2v80.6       C201.9,269.2,198.7,272.4,194.7,272.4z"></path>
					<path class="st13" d="M194.7,272.4h-55.2c-4,0-7.2-3.2-7.2-7.2v-80.6c0-4,3.2-7.2,7.2-7.2h55.2c4,0,7.2,3.2,7.2,7.2v80.6       C201.9,269.2,198.7,272.4,194.7,272.4z"></path>
				</g>
				<g>
					<path class="st1" d="M187.7,265.4h-55.2c-4,0-7.2-3.2-7.2-7.2v-80.6c0-4,3.2-7.2,7.2-7.2h55.2c4,0,7.2,3.2,7.2,7.2v80.6       C194.9,262.2,191.7,265.4,187.7,265.4z"></path>
					<path class="st4" d="M187.7,265.4h-55.2c-4,0-7.2-3.2-7.2-7.2v-80.6c0-4,3.2-7.2,7.2-7.2h55.2c4,0,7.2,3.2,7.2,7.2v80.6       C194.9,262.2,191.7,265.4,187.7,265.4z"></path>
				</g>
			</g>
			<g>
				<line class="st4" x1="134.6" y1="184.8" x2="140.3" y2="179.1"></line>
				<line class="st4" x1="134.6" y1="179.1" x2="140.3" y2="184.8"></line>
			</g>
			<g>
				<g>
					<path class="st14" d="M134.8,219.1l16.7-8.6v2.5l-14.1,7.1v0.1l14.1,7.1v2.5l-16.7-8.6V219.1z"></path>
					<path class="st14" d="M153.9,231.1l10-26.1h2.4l-10.1,26.1H153.9z"></path>
					<path class="st14" d="M185.4,221.1l-16.7,8.6v-2.5l14.2-7.1v-0.1l-14.2-7.1v-2.5l16.7,8.6V221.1z"></path>
				</g>
			</g>
		</g>
		<g>
			<path class="st4" d="M218.7,206.6c-16.9,0-16.1-12.8-31.4-12.8"></path>
			<path class="st5" d="M181.6,193.7L181.6,193.7c0,1.6,1.3,2.8,2.8,2.8l0,0c1.6,0,2.8-1.3,2.8-2.8l0,0c0-1.6-1.3-2.8-2.8-2.8l0,0     C182.9,190.9,181.6,192.2,181.6,193.7z"></path>
			<path class="st5" d="M218.7,206.6L218.7,206.6c0,1.6,1.3,2.8,2.8,2.8l0,0c1.6,0,2.8-1.3,2.8-2.8l0,0c0-1.6-1.3-2.8-2.8-2.8l0,0     C220,203.7,218.7,205,218.7,206.6z"></path>
		</g>
	</g>
	<g>
		<g class="st11">
			<path class="st12" d="M307.9,192.6h-59c-4,0-7.2-3.2-7.2-7.2v-32c0-4,3.2-7.2,7.2-7.2h59c4,0,7.2,3.2,7.2,7.2v32     C315.1,189.4,311.8,192.6,307.9,192.6z"></path>
			<path class="st13" d="M307.9,192.6h-59c-4,0-7.2-3.2-7.2-7.2v-32c0-4,3.2-7.2,7.2-7.2h59c4,0,7.2,3.2,7.2,7.2v32     C315.1,189.4,311.8,192.6,307.9,192.6z"></path>
		</g>
		<g>
			<path class="st1" d="M300.9,185.6h-59c-4,0-7.2-3.2-7.2-7.2v-32c0-4,3.2-7.2,7.2-7.2h59c4,0,7.2,3.2,7.2,7.2v32     C308.1,182.4,304.8,185.6,300.9,185.6z"></path>
			<path class="st4" d="M300.9,185.6h-59c-4,0-7.2-3.2-7.2-7.2v-32c0-4,3.2-7.2,7.2-7.2h59c4,0,7.2,3.2,7.2,7.2v32     C308.1,182.4,304.8,185.6,300.9,185.6z"></path>
		</g>
	</g>
	<line class="st4" x1="244" y1="153.5" x2="249.6" y2="147.8"></line>
	<line class="st4" x1="244" y1="147.8" x2="249.6" y2="153.5"></line>
	<g>
		<g>
			<path class="st14" d="M262,156.7v8.4c0,3.2,1.4,4.5,3.3,4.5c2.1,0,3.4-1.4,3.4-4.5v-8.4h1.8v8.3c0,4.3-2.3,6.1-5.4,6.1     c-2.9,0-5.1-1.7-5.1-6v-8.3H262z"></path>
			<path class="st14" d="M281.5,170.8l-1.8-3.1c-0.7-1.2-1.2-2-1.6-2.8h0c-0.4,0.8-0.8,1.6-1.5,2.8l-1.7,3.1h-2.1l4.3-7.2l-4.2-7     h2.1l1.9,3.3c0.5,0.9,0.9,1.6,1.3,2.4h0.1c0.4-0.8,0.8-1.5,1.3-2.4l1.9-3.3h2.1l-4.3,6.9l4.4,7.3H281.5z"></path>
		</g>
	</g>
	<g>
		<path d="M578.5,185v27.3c0,10.3,4.6,14.7,10.7,14.7c6.8,0,11.2-4.5,11.2-14.7V185h6v26.9c0,14.2-7.5,20-17.4,20    c-9.4,0-16.5-5.4-16.5-19.7V185H578.5z"></path>
		<path d="M622.7,185V231h-5.9V185H622.7z"></path>
	</g>
	<g>
		<g>
			<path class="st14" d="M263.5,405.7h3V421c0,6.1-3,8-6.9,8c-1.1,0-2.4-0.2-3.2-0.5l0.4-2.4c0.6,0.2,1.5,0.4,2.5,0.4     c2.7,0,4.2-1.2,4.2-5.7V405.7z"></path>
			<path class="st14" d="M275,421.4l-2.4,7.2h-3.1l7.8-22.9h3.6l7.8,22.9h-3.2l-2.4-7.2H275z M282.6,419.1l-2.2-6.6     c-0.5-1.5-0.8-2.9-1.2-4.2h-0.1c-0.3,1.4-0.7,2.8-1.2,4.1l-2.2,6.6H282.6z"></path>
			<path class="st14" d="M295.4,428.6l-7.5-22.9h3.2l3.6,11.3c1,3.1,1.8,5.9,2.4,8.6h0.1c0.6-2.7,1.6-5.5,2.6-8.5l3.9-11.3h3.2     l-8.2,22.9H295.4z"></path>
			<path class="st14" d="M311.1,421.4l-2.4,7.2h-3.1l7.8-22.9h3.6l7.8,22.9h-3.2l-2.4-7.2H311.1z M318.6,419.1l-2.2-6.6     c-0.5-1.5-0.8-2.9-1.2-4.2h-0.1c-0.3,1.4-0.7,2.8-1.2,4.1l-2.2,6.6H318.6z"></path>
		</g>
	</g>
	<g>
		<g>
			<g class="st11">
				<path class="st12" d="M487.6,157.6H339.4c-4,0-7.2,3.2-7.2,7.2v6.3c0,4,3.2,7.2,7.2,7.2h148.2c4,0,7.2-3.2,7.2-7.2v-6.3      C494.8,160.9,491.6,157.6,487.6,157.6z"></path>
				<path class="st13" d="M487.6,157.6H339.4c-4,0-7.2,3.2-7.2,7.2v6.3c0,4,3.2,7.2,7.2,7.2h148.2c4,0,7.2-3.2,7.2-7.2v-6.3      C494.8,160.9,491.6,157.6,487.6,157.6z"></path>
			</g>
			<g>
				<path class="st1" d="M482,152.1H333.8c-4,0-7.2,3.2-7.2,7.2v6.3c0,4,3.2,7.2,7.2,7.2H482c4,0,7.2-3.2,7.2-7.2v-6.3      C489.2,155.3,486,152.1,482,152.1z"></path>
				<path class="st4" d="M482,152.1H333.8c-4,0-7.2,3.2-7.2,7.2v6.3c0,4,3.2,7.2,7.2,7.2H482c4,0,7.2-3.2,7.2-7.2v-6.3      C489.2,155.3,486,152.1,482,152.1z"></path>
			</g>
		</g>
		<g>
			<path class="st9" d="M477.2,159H369.4c-1.9,0-3.4,1.5-3.4,3.4l0,0c0,1.9,1.5,3.4,3.4,3.4h107.8c1.9,0,3.4-1.5,3.4-3.4l0,0     C480.6,160.5,479.1,159,477.2,159z"></path>
			<path class="st2" d="M456.2,159h-86.8c-1.9,0-3.4,1.5-3.4,3.4c0,1.9,1.5,3.4,3.4,3.4h86.8V159z"></path>
		</g>
		<rect x="350.9" y="159.6" class="st4" width="5.7" height="5.7"></rect>
	</g>
	<g>
		<g>
			<g class="st11">
				<path class="st12" d="M487.6,128.8H339.4c-4,0-7.2,3.2-7.2,7.2v6.3c0,4,3.2,7.2,7.2,7.2h148.2c4,0,7.2-3.2,7.2-7.2V136      C494.8,132,491.6,128.8,487.6,128.8z"></path>
				<path class="st13" d="M487.6,128.8H339.4c-4,0-7.2,3.2-7.2,7.2v6.3c0,4,3.2,7.2,7.2,7.2h148.2c4,0,7.2-3.2,7.2-7.2V136      C494.8,132,491.6,128.8,487.6,128.8z"></path>
			</g>
			<g>
				<path class="st1" d="M482,123.2H333.8c-4,0-7.2,3.2-7.2,7.2v6.3c0,4,3.2,7.2,7.2,7.2H482c4,0,7.2-3.2,7.2-7.2v-6.3      C489.2,126.5,486,123.2,482,123.2z"></path>
				<path class="st4" d="M482,123.2H333.8c-4,0-7.2,3.2-7.2,7.2v6.3c0,4,3.2,7.2,7.2,7.2H482c4,0,7.2-3.2,7.2-7.2v-6.3      C489.2,126.5,486,123.2,482,123.2z"></path>
			</g>
		</g>
		<g>
			<path class="st9" d="M477.2,130.2H369.4c-1.9,0-3.4,1.5-3.4,3.4l0,0c0,1.9,1.5,3.4,3.4,3.4h107.8c1.9,0,3.4-1.5,3.4-3.4l0,0     C480.6,131.7,479.1,130.2,477.2,130.2z"></path>
			<path class="st2" d="M393.7,130.2h-24.3c-1.9,0-3.4,1.5-3.4,3.4c0,1.9,1.5,3.4,3.4,3.4h24.3V130.2z"></path>
		</g>
		<rect x="350.9" y="130.8" class="st4" width="5.7" height="5.7"></rect>
	</g>
	<g>
		<g>
			<g class="st11">
				<path class="st12" d="M487.6,186.5H339.4c-4,0-7.2,3.2-7.2,7.2v6.3c0,4,3.2,7.2,7.2,7.2h148.2c4,0,7.2-3.2,7.2-7.2v-6.3      C494.8,189.7,491.6,186.5,487.6,186.5z"></path>
				<path class="st13" d="M487.6,186.5H339.4c-4,0-7.2,3.2-7.2,7.2v6.3c0,4,3.2,7.2,7.2,7.2h148.2c4,0,7.2-3.2,7.2-7.2v-6.3      C494.8,189.7,491.6,186.5,487.6,186.5z"></path>
			</g>
			<g>
				<path class="st1" d="M482,180.9H333.8c-4,0-7.2,3.2-7.2,7.2v6.3c0,4,3.2,7.2,7.2,7.2H482c4,0,7.2-3.2,7.2-7.2v-6.3      C489.2,184.1,486,180.9,482,180.9z"></path>
				<path class="st4" d="M482,180.9H333.8c-4,0-7.2,3.2-7.2,7.2v6.3c0,4,3.2,7.2,7.2,7.2H482c4,0,7.2-3.2,7.2-7.2v-6.3      C489.2,184.1,486,180.9,482,180.9z"></path>
			</g>
		</g>
		<g>
			<path class="st9" d="M477.2,187.9H369.4c-1.9,0-3.4,1.5-3.4,3.4l0,0c0,1.9,1.5,3.4,3.4,3.4h107.8c1.9,0,3.4-1.5,3.4-3.4l0,0     C480.6,189.4,479.1,187.9,477.2,187.9z"></path>
			<path class="st2" d="M473.1,187.9H369.4c-1.9,0-3.4,1.5-3.4,3.4c0,1.9,1.5,3.4,3.4,3.4h103.7V187.9z"></path>
		</g>
		<rect x="350.9" y="188.5" class="st4" width="5.7" height="5.7"></rect>
	</g>
	<g>
		<path class="st4" d="M333.4,134.6c-16.9,0-16.1,12.8-31.4,12.8"></path>
		<path class="st5" d="M296.3,147.5L296.3,147.5c0-1.6,1.3-2.8,2.8-2.8l0,0c1.6,0,2.8,1.3,2.8,2.8l0,0c0,1.6-1.3,2.8-2.8,2.8l0,0    C297.6,150.3,296.3,149.1,296.3,147.5z"></path>
		<path class="st5" d="M333.4,134.6L333.4,134.6c0-1.6,1.3-2.8,2.8-2.8l0,0c1.6,0,2.8,1.3,2.8,2.8l0,0c0,1.6-1.3,2.8-2.8,2.8l0,0    C334.7,137.5,333.4,136.2,333.4,134.6z"></path>
	</g>
	<g>
		<path class="st5" d="M296.3,163.1L296.3,163.1c0-1.6,1.3-2.8,2.8-2.8l0,0c1.6,0,2.8,1.3,2.8,2.8l0,0c0,1.6-1.3,2.8-2.8,2.8l0,0    C297.6,165.9,296.3,164.7,296.3,163.1z"></path>
		<path class="st5" d="M333.4,163.1L333.4,163.1c0-1.6,1.3-2.8,2.8-2.8l0,0c1.6,0,2.8,1.3,2.8,2.8l0,0c0,1.6-1.3,2.8-2.8,2.8l0,0    C334.7,165.9,333.4,164.7,333.4,163.1z"></path>
		<line class="st4" x1="333.4" y1="163.1" x2="302" y2="163.1"></line>
	</g>
	<g>
		<path class="st4" d="M333.4,190.5c-16.9,0-16.1-12.8-31.4-12.8"></path>
		<path class="st5" d="M296.3,177.7L296.3,177.7c0,1.6,1.3,2.8,2.8,2.8l0,0c1.6,0,2.8-1.3,2.8-2.8l0,0c0-1.6-1.3-2.8-2.8-2.8l0,0    C297.6,174.9,296.3,176.1,296.3,177.7z"></path>
		<path class="st5" d="M333.4,190.5L333.4,190.5c0,1.6,1.3,2.8,2.8,2.8l0,0c1.6,0,2.8-1.3,2.8-2.8l0,0c0-1.6-1.3-2.8-2.8-2.8l0,0    C334.7,187.7,333.4,189,333.4,190.5z"></path>
	</g>
</g>
</svg>
